<?xml version="1.0" encoding="UTF-8"?>
<svg id="Livello_1" data-name="Livello 1" xmlns="http://www.w3.org/2000/svg" viewBox="0 0 193.71 1030.2">
  <defs>
    <style>
      .cls-1 {
        stroke: #a67e9d;
      }

      .cls-1, .cls-2, .cls-3, .cls-4 {
        stroke-width: 1.09px;
      }

      .cls-1, .cls-2, .cls-3, .cls-4, .cls-5 {
        fill: none;
        stroke-linecap: round;
        stroke-miterlimit: 10;
      }

      .cls-2, .cls-5 {
        stroke: #000;
      }

      .cls-3 {
        stroke: #8db8c4;
      }

      .cls-4 {
        stroke: #375544;
      }

      .cls-5 {
        stroke-width: 3.06px;
      }
    </style>
  </defs>
  <line class="cls-5" x1="1.53" y1="1.53" x2="1.59" y2="1028.16"/>
  <path class="cls-3" d="m48.76.66v83.5c0,4.39-2.95,8.23-7.19,9.37l-33.46,8.99c-2.75.74-4.66,3.23-4.66,6.08v15.72c0,2.93,2.02,5.48,4.88,6.14l32.91,7.59c4.4,1.02,7.52,4.94,7.52,9.46v127.23c0,4.4-2.88,8.27-7.09,9.54l-32.9,9.93c-3.16.95-5.33,3.87-5.33,7.17v17.85c0,3.34,2.21,6.27,5.42,7.2l32.69,9.42c4.27,1.23,7.21,5.14,7.21,9.58v62.82c0,4.32-2.9,8.11-7.08,9.24l-33.76,9.09c-2.64.71-4.47,3.1-4.47,5.83v10.54c0,2.77,1.88,5.19,4.57,5.86l37.3,9.35c2.02.51,3.44,2.33,3.44,4.41v5.43c0,2.2-1.57,4.08-3.74,4.48l-38.84,7.02c-1.58.29-2.73,1.66-2.73,3.27v2.03c0,2.27,1.65,4.21,3.89,4.58l39.25,6.43c1.26.21,2.18,1.29,2.18,2.56h0c0,1.28-.93,2.37-2.19,2.57l-38.74,6.12c-2.52.4-4.38,2.57-4.38,5.13v7.37c0,2.42,1.67,4.52,4.03,5.06l33.85,7.74c4.35.99,7.43,4.86,7.43,9.32v487.98"/>
  <path class="cls-4" d="m96,.66v396.97c0,8.73-6.22,16.22-14.8,17.82l-71.85,10.8c-3.42.64-5.9,3.62-5.9,7.1v50.91c0,3.18,2.38,5.86,5.54,6.24l71.03,11.1c9.12,1.09,15.98,8.82,15.98,18v388.22c0,5.72-4.28,10.54-9.96,11.21l-79.29,9.35c-1.88.22-3.08,1.82-3.08,3.71v2.11c0,1.89,1.19,3.48,3.06,3.71l79.36,9.74c5.66.69,9.91,5.5,9.91,11.2v70.82"/>
  <path class="cls-1" d="m143.23.66v37.08c0,5.94-4.56,10.88-10.49,11.36L7.71,59.09c-2.41.19-4.26,2.2-4.26,4.62v6.3c0,2.42,1.86,4.43,4.27,4.62l125.01,9.8c5.93.46,10.5,5.41,10.5,11.36v67.05c0,6.07-4.56,11.18-10.59,11.87l-121.4,13.84c-4.44.51-7.79,4.26-7.79,8.73v11.6c0,4.48,3.37,8.24,7.82,8.73l121.33,13.4c6.05.67,10.63,5.78,10.63,11.87v143.43c0,5.1-3.93,9.33-9.01,9.72l-124.96,9.4c-3.28.25-5.81,2.98-5.81,6.27v13.33c0,3.2,2.4,5.88,5.58,6.25l125.57,14.3c4.92.56,8.64,4.73,8.64,9.68v153.71c0,5.96-4.59,10.93-10.54,11.39l-124.27,9.71c-2.81.22-4.97,2.56-4.97,5.38v11.05c0,2.83,2.19,5.18,5.02,5.38l124.13,8.65c5.99.42,10.63,5.4,10.63,11.4v97.77c0,11.8-8.64,21.82-20.32,23.56l-108.56,16.14c-6.27.93-10.91,6.31-10.91,12.65v57.94c0,6.51,4.89,11.98,11.36,12.71l107.27,12.08c12.05,1.36,21.15,11.55,21.15,23.67v101.24"/>
  <path class="cls-2" d="m190.47.68v12.31c0,2.41-1.89,4.4-4.3,4.53L7.36,26.89c-2.19.11-3.91,1.92-3.91,4.12v1.35c0,2.19,1.72,4,3.9,4.12l170.88,9.12c6.86.37,12.23,6.03,12.23,12.9v86.97c0,5.85-4.53,10.71-10.37,11.12L7.47,168.6c-2.26.16-4.02,2.04-4.02,4.31v11.53c0,2.3,1.8,4.2,4.1,4.31l179.64,9.33h0c5.9.19,5.68,8.71-.66,8.93L7.18,216.75c-2.09.11-3.72,1.84-3.72,3.93v5.42c0,2.1,1.64,3.82,3.74,3.93l174.22,8.72c5.07.25,9.06,4.44,9.06,9.52v70.44c0,5.22-4.13,9.51-9.35,9.72l-168.69,6.59c-5.02.2-8.98,4.32-8.98,9.34v32.44c0,3.48,2.71,6.36,6.19,6.57l171.68,10.25c5.14.31,9.15,4.56,9.15,9.71v271.29c0,7.31-5.76,13.32-13.06,13.65l-170.92,10.96c-1.7.07-3.04,1.48-3.04,3.18v4.42c0,1.69,1.33,3.09,3.02,3.18l171.04,9.99c7.26.37,12.96,6.37,12.96,13.64v156.8c0,10.04-7.76,18.38-17.77,19.1l-164.19,11.87c-2.85.21-5.06,2.58-5.06,5.44v27.4c0,2.49,1.69,4.66,4.1,5.28l181.8,8.18c1.84.08,3.44,1.41,3.75,3.23.02.09.03.18.04.27.28,2.36-1.6,4.42-3.97,4.43l-180.03,1.96c-5.02.22-5.69,4-5.68,6.77,0,.06,0,13.64,0,13.64,0,3.11,2.36,5.72,5.45,6.02l173.95,17.27c4.32.43,7.61,2.32,7.61,6.66v1.09"/>
</svg>