<?xml version="1.0" encoding="UTF-8"?>
<svg id="Livello_4" data-name="Livello 4" xmlns="http://www.w3.org/2000/svg" viewBox="0 0 4371.22 5672.37">
  <defs>
    <style>
      .cls-1 {
        fill: none;
        stroke: #fff;
        stroke-miterlimit: 10;
      }
    </style>
  </defs>
  <line class="cls-1" x1="328.43" y1="1284.46" x2="1328.63" y2="1285.29"/>
  <line class="cls-1" x1="328.41" y1="1418.96" x2="1328.61" y2="1419.79"/>
  <line class="cls-1" x1="328.38" y1="1624.96" x2="1328.59" y2="1625.79"/>
  <line class="cls-1" x1="328.33" y1="1833.96" x2="1328.54" y2="1834.79"/>
  <line class="cls-1" x1="328.3" y1="2042.96" x2="1328.51" y2="2043.79"/>
  <line class="cls-1" x1="328.19" y1="2144.96" x2="1328.57" y2="2145.79"/>
  <line class="cls-1" x1="328.18" y1="2314.96" x2="1328.77" y2="2315.79"/>
  <line class="cls-1" x1="328.16" y1="2435.96" x2="1323.61" y2="2435.96"/>
  <line class="cls-1" x1="328.34" y1="2746.96" x2="1323" y2="2746.72"/>
  <line class="cls-1" x1="328.42" y1="2924.96" x2="1327.69" y2="2925.79"/>
  <line class="cls-1" x1="328.38" y1="3222.96" x2="1327.65" y2="3223.79"/>
  <line class="cls-1" x1="328.17" y1="3785.96" x2="1327.65" y2="3786.79"/>
  <line class="cls-1" x1="328.08" y1="4047.96" x2="1327.64" y2="4048.79"/>
  <line class="cls-1" x1="328.61" y1="4676.87" x2="1324.61" y2="4676.87"/>
  <line class="cls-1" x1="329.11" y1="5237.79" x2="1325.11" y2="5237.79"/>
  <line class="cls-1" x1="328.21" y1="3530.96" x2="1327.63" y2="3531.79"/>
</svg>